<svg height="48" viewBox="0 0 153 48" width="153" xmlns="http://www.w3.org/2000/svg"><g fill="none" fill-rule="evenodd"><g><path d="m0 48h48.001v-48h-48.001z" fill="#b72f2a" fill-rule="nonzero"/><path d="m33.0259 15.4951v-4.551h-14.319v9.765h-.389-2.701v3.106h.856 2.234v2.457h-.479-2.611v3.111h.763 2.327v9.559h5.523v-9.559h4.902l1.388-3.111h-6.29v-1.043-1.414h7.413l1.383-3.106h-8.796v-5.214z" fill="#fff"/></g><g fill="#006193" fill-rule="nonzero" transform="translate(56.517261 10.284899)"><path d="m63.8959 32.1327c1.585 0 2.774 1.199 2.774 2.798 0 1.537-1.254 2.775-2.806 2.775-1.601 0-2.869-1.222-2.869-2.766 0-.78.313-1.505.899-2.059.514-.483 1.214-.748 2.002-.748zm-60.3483.1047v5.364h-1.303v-5.364zm4.7352-.0005 1.954 3.016v-3.016h1.302v5.364h-1.302l-1.954-3.056v3.056h-1.303v-5.364zm9.9609 0v1.053h-1.23v4.311h-1.303v-4.311h-1.239v-1.053zm5.8847.0002v1.053h-1.769v1.094h1.769v1.054h-1.769v1.11h1.769v1.053h-3.072v-5.364zm5.0082-.0003c.708 0 1.222.129 1.576.403.37.289.58.773.58 1.359 0 .812-.346 1.358-1.038 1.632l1.182 1.97h-1.56l-1.174-2.074v2.074h-1.303v-5.364zm6.8171.0001 1.955 3.016v-3.016h1.302v5.364h-1.302l-1.955-3.056v3.056h-1.302v-5.364zm9.558-.0001 1.761 5.364h-1.431l-.234-.772h-1.898l-.233.772h-1.391l1.769-5.364zm7.7105.0001v1.053h-1.23v4.311h-1.303v-4.311h-1.239v-1.053zm4.7594.0005v5.364h-1.303v-5.364zm12.8456-.0005 1.954 3.016v-3.016h1.303v5.364h-1.303l-1.954-3.056v3.056h-1.303v-5.364zm9.6157-.0001 1.761 5.364h-1.431l-.234-.772h-1.898l-.233.772h-1.391l1.769-5.364zm5.9816.0004v4.311h1.744v1.053h-3.048v-5.364zm-22.5766 1.1035c-.877 0-1.528.674-1.528 1.583 0 .884.667 1.576 1.52 1.576.835 0 1.512-.692 1.512-1.552 0-.917-.644-1.607-1.504-1.607zm-19.1892.4331-.627 2.001h1.254zm34.9322 0-.627 2.001h1.253zm-50.3903-.467h-.498v1.488h.418c.539 0 .852-.273.852-.739 0-.452-.305-.749-.772-.749z"/><path d="m84.464 8.782 3.241 10.089h.057l3.236-10.089h4.695l-7.384 19.592h-4.469l1.666-4.339-5.728-15.253zm-36.065-.414c4.605 0 7.809 3.146 7.809 8.072v1.187h-11.163c.176 1.776 1.273 3.563 3.561 3.563 1.311 0 2.466-.626 3.059-1.813l4.158.322c-1.038 3.122-3.834 4.753-7.424 4.753-4.606 0-7.809-3.145-7.809-8.012 0-4.926 3.203-8.072 7.809-8.072zm-9.279-7.829v23.496h-4.096v-2.136h-.059c-1.218 1.809-2.999 2.553-4.961 2.553-4.245 0-7.127-3.828-7.127-8.072 0-4.241 2.678-8.012 7.066-8.012 1.963 0 3.417.622 4.844 2.493h.061v-10.322zm37.165 3.472v4.771h2.252v3.262h-2.252v7.719c0 .683.294 1.009 1.393 1.009.361 0 .599-.03.859-.09v3.353c-.68.087-1.36.178-2.047.178-2.791 0-4.484-.683-4.484-3.976v-8.193h-1.956v-3.262h1.956v-4.771zm-61.807-3.411v3.877h-7.514v4.456h7.514l-1.182 2.657h-6.332v1.55h5.639l-1.182 2.656h-4.457v8.326h-4.719l-.001-8.326h-2.244v-2.656h2.244v-1.55h-2.244v-2.657h2.244v-8.333zm6.765 8.296v15.171h-4.723v-15.171zm40.794-8.357v23.496h-4.28v-23.496zm6.365 8.244v15.252h-4.281v-15.252zm-37.327 3.209c-2.462 0-3.742 2.195-3.742 4.509 0 2.402 1.337 4.51 3.86 4.51 2.434 0 3.801-2.017 3.801-4.571 0-2.29-1.247-4.448-3.919-4.448zm17.531-.357c-2.227 0-3.326 1.544-3.561 3.262h6.892c-.154-1.484-1.282-3.262-3.331-3.262zm-29.727-11.635c1.278 0 2.491 1.097 2.491 2.463 0 1.301-1.122 2.518-2.491 2.518-1.424 0-2.493-1.275-2.493-2.458 0-1.252 1.069-2.523 2.493-2.523zm47.383 0c1.276 0 2.491 1.097 2.491 2.463 0 1.301-1.125 2.518-2.491 2.518-1.427 0-2.496-1.275-2.496-2.458 0-1.252 1.069-2.523 2.496-2.523z"/></g></g></svg>